G04*
G04 #@! TF.GenerationSoftware,Altium Limited,Altium Designer,21.6.1 (37)*
G04*
G04 Layer_Color=8421504*
%FSLAX44Y44*%
%MOMM*%
G71*
G04*
G04 #@! TF.SameCoordinates,0F7C46F9-05DF-46B9-B7E4-F31FC23B8959*
G04*
G04*
G04 #@! TF.FilePolarity,Positive*
G04*
G01*
G75*
G04:AMPARAMS|DCode=15|XSize=1.57mm|YSize=0.41mm|CornerRadius=0.0513mm|HoleSize=0mm|Usage=FLASHONLY|Rotation=0.000|XOffset=0mm|YOffset=0mm|HoleType=Round|Shape=RoundedRectangle|*
%AMROUNDEDRECTD15*
21,1,1.5700,0.3075,0,0,0.0*
21,1,1.4675,0.4100,0,0,0.0*
1,1,0.1025,0.7338,-0.1538*
1,1,0.1025,-0.7338,-0.1538*
1,1,0.1025,-0.7338,0.1538*
1,1,0.1025,0.7338,0.1538*
%
%ADD15ROUNDEDRECTD15*%
%ADD16R,0.9200X1.4200*%
%ADD17R,0.5400X0.6000*%
%ADD18R,0.6000X0.5400*%
%ADD19R,1.0000X1.0200*%
%ADD20R,1.0200X1.0000*%
D15*
X418700Y532250D02*
D03*
Y525750D02*
D03*
Y519250D02*
D03*
Y512750D02*
D03*
Y506250D02*
D03*
Y499750D02*
D03*
Y493250D02*
D03*
Y486750D02*
D03*
Y480250D02*
D03*
Y473750D02*
D03*
Y467250D02*
D03*
Y460750D02*
D03*
Y454250D02*
D03*
Y447750D02*
D03*
X361300D02*
D03*
Y454250D02*
D03*
Y460750D02*
D03*
Y467250D02*
D03*
Y473750D02*
D03*
Y480250D02*
D03*
Y486750D02*
D03*
Y493250D02*
D03*
Y499750D02*
D03*
Y506250D02*
D03*
Y512750D02*
D03*
Y519250D02*
D03*
Y525750D02*
D03*
Y532250D02*
D03*
D16*
X349000Y415000D02*
D03*
X369000D02*
D03*
X395000Y398000D02*
D03*
X415000D02*
D03*
X293000Y421000D02*
D03*
X273000D02*
D03*
X369000Y395000D02*
D03*
X349000D02*
D03*
X416000Y380000D02*
D03*
X396000D02*
D03*
X273000Y398000D02*
D03*
X293000D02*
D03*
X490000Y370000D02*
D03*
X470000D02*
D03*
Y390000D02*
D03*
X490000D02*
D03*
D17*
X370680Y429000D02*
D03*
X379320D02*
D03*
X404320D02*
D03*
X395680D02*
D03*
X444680Y428000D02*
D03*
X453320D02*
D03*
D18*
X338000Y441680D02*
D03*
Y450320D02*
D03*
X456165Y475920D02*
D03*
Y467280D02*
D03*
X341000Y478680D02*
D03*
Y487320D02*
D03*
D19*
X466410Y490000D02*
D03*
X481590D02*
D03*
D20*
X331000Y535410D02*
D03*
Y550590D02*
D03*
M02*
