M48
;Layer_Color=9474304
;FILE_FORMAT=4:4
METRIC,LZ
;TYPE=PLATED
T1F00S00C0.7112
T2F00S00C0.9000
%
T01
X00440473Y0048675
X00481Y00472
X0038Y00482
X0038248Y00501
X00379Y00518
X00329Y00511
X00316Y00516
X00314Y0053
Y00547
X00315Y00501
T02
X0028Y002816
Y00307
Y003324
Y003578
X00360333
Y003324
Y00307
Y002816
X00440667
Y00307
Y003324
Y003578
X00513Y003568
Y003314
Y00306
Y002806
X0051Y004192
Y004446
Y0047
Y004954
Y005208
Y005462
Y005716
Y00597
X004164Y00602
X00391
X003656
M30
