G04*
G04 #@! TF.GenerationSoftware,Altium Limited,Altium Designer,21.6.1 (37)*
G04*
G04 Layer_Color=32768*
%FSLAX44Y44*%
%MOMM*%
G71*
G04*
G04 #@! TF.SameCoordinates,0F7C46F9-05DF-46B9-B7E4-F31FC23B8959*
G04*
G04*
G04 #@! TF.FilePolarity,Positive*
G04*
G01*
G75*
%ADD37C,0.0500*%
D37*
X429050Y439000D02*
Y541000D01*
X350950Y439000D02*
Y541000D01*
Y439000D02*
X429050D01*
X350950Y541000D02*
X429050D01*
X341900Y405400D02*
X376100D01*
X341900Y424600D02*
X376100D01*
X341900Y405400D02*
Y424600D01*
X376100Y405400D02*
Y424600D01*
X387900Y388400D02*
Y407600D01*
X422100Y388400D02*
Y407600D01*
X387900Y388400D02*
X422100D01*
X387900Y407600D02*
X422100D01*
X300100Y411400D02*
Y430600D01*
X265900Y411400D02*
Y430600D01*
X300100D01*
X265900Y411400D02*
X300100D01*
X376100Y385400D02*
Y404600D01*
X341900Y385400D02*
Y404600D01*
X376100D01*
X341900Y385400D02*
X376100D01*
X365500Y423500D02*
X384500D01*
X365500Y434500D02*
X384500D01*
X365500Y423500D02*
Y434500D01*
X384500Y423500D02*
Y434500D01*
X388900Y389600D02*
X423100D01*
X388900Y370400D02*
X423100D01*
Y389600D01*
X388900Y370400D02*
Y389600D01*
X265900Y388400D02*
X300100D01*
X265900Y407600D02*
X300100D01*
X265900Y388400D02*
Y407600D01*
X300100Y388400D02*
Y407600D01*
X462900Y379600D02*
X497100D01*
X462900Y360400D02*
X497100D01*
Y379600D01*
X462900Y360400D02*
Y379600D01*
Y380400D02*
Y399600D01*
X497100Y380400D02*
Y399600D01*
X462900Y380400D02*
X497100D01*
X462900Y399600D02*
X497100D01*
X343500Y436500D02*
Y455500D01*
X332500Y436500D02*
Y455500D01*
Y436500D02*
X343500D01*
X332500Y455500D02*
X343500D01*
X390500Y434500D02*
X409500D01*
X390500Y423500D02*
X409500D01*
Y434500D01*
X390500Y423500D02*
Y434500D01*
X439500Y422500D02*
X458500D01*
X439500Y433500D02*
X458500D01*
X439500Y422500D02*
Y433500D01*
X458500Y422500D02*
Y433500D01*
X450665Y462100D02*
Y481100D01*
X461665Y462100D02*
Y481100D01*
X450665D02*
X461665D01*
X450665Y462100D02*
X461665D01*
X346500Y473500D02*
Y492500D01*
X335500Y473500D02*
Y492500D01*
Y473500D02*
X346500D01*
X335500Y492500D02*
X346500D01*
X458920Y482420D02*
X489080D01*
X458920Y497580D02*
X489080D01*
X458920Y482420D02*
Y497580D01*
X489080Y482420D02*
Y497580D01*
X338580Y527920D02*
Y558080D01*
X323420Y527920D02*
Y558080D01*
Y527920D02*
X338580D01*
X323420Y558080D02*
X338580D01*
M02*
