G04*
G04 #@! TF.GenerationSoftware,Altium Limited,Altium Designer,21.6.1 (37)*
G04*
G04 Layer_Color=65535*
%FSLAX44Y44*%
%MOMM*%
G71*
G04*
G04 #@! TF.SameCoordinates,0F7C46F9-05DF-46B9-B7E4-F31FC23B8959*
G04*
G04*
G04 #@! TF.FilePolarity,Positive*
G04*
G01*
G75*
%ADD10C,0.2000*%
%ADD11C,0.1270*%
%ADD12C,0.1000*%
%ADD13C,0.1400*%
%ADD14C,0.2500*%
D10*
X346600Y536350D02*
G03*
X346600Y536350I-1000J0D01*
G01*
X497300Y609700D02*
X522700D01*
Y406500D02*
Y609700D01*
X497300Y406500D02*
X522700D01*
X497300D02*
Y609700D01*
X352900Y589300D02*
X429100D01*
Y614700D01*
X352900D02*
X429100D01*
X352900Y589300D02*
Y614700D01*
X500300Y267900D02*
X525700D01*
X500300D02*
Y369500D01*
X525700Y267900D02*
Y369500D01*
X500300D02*
X525700D01*
X267300Y268900D02*
X292700D01*
X267300D02*
Y370500D01*
X292700Y268900D02*
Y370500D01*
X267300D02*
X292700D01*
X427967Y268900D02*
X453367D01*
X427967D02*
Y370500D01*
X453367Y268900D02*
Y370500D01*
X427967D02*
X453367D01*
X347633Y268900D02*
X373033D01*
X347633D02*
Y370500D01*
X373033Y268900D02*
Y370500D01*
X347633D02*
X373033D01*
X257000Y302000D02*
Y309498D01*
X260749D01*
X261998Y308248D01*
Y305749D01*
X260749Y304499D01*
X257000D01*
X532000Y303000D02*
Y310498D01*
X535749D01*
X536998Y309248D01*
Y306749D01*
X535749Y305499D01*
X532000D01*
X418000Y303000D02*
Y310498D01*
X421749D01*
X422998Y309248D01*
Y306749D01*
X421749Y305499D01*
X418000D01*
X338000Y299000D02*
Y306498D01*
X341749D01*
X342998Y305248D01*
Y302749D01*
X341749Y301499D01*
X338000D01*
X532000Y328000D02*
Y335498D01*
X536998Y328000D01*
Y335498D01*
X418000Y327000D02*
Y334498D01*
X422998Y327000D01*
Y334498D01*
X338000Y329000D02*
Y336498D01*
X342998Y329000D01*
Y336498D01*
X537248Y362002D02*
X538498Y363251D01*
Y365750D01*
X537248Y367000D01*
X532250D01*
X531000Y365750D01*
Y363251D01*
X532250Y362002D01*
X534749D01*
Y364501D01*
X531000Y359502D02*
X538498D01*
X531000Y354504D01*
X538498D01*
Y352005D02*
X531000D01*
Y348256D01*
X532250Y347006D01*
X537248D01*
X538498Y348256D01*
Y352005D01*
X412854Y351200D02*
X411604Y349951D01*
Y347452D01*
X412854Y346202D01*
X417852D01*
X419102Y347452D01*
Y349951D01*
X417852Y351200D01*
X415353D01*
Y348701D01*
X419102Y353700D02*
X411604D01*
X419102Y358698D01*
X411604D01*
Y361197D02*
X419102D01*
Y364946D01*
X417852Y366196D01*
X412854D01*
X411604Y364946D01*
Y361197D01*
X379752Y350998D02*
X378502Y349749D01*
Y347250D01*
X379752Y346000D01*
X384750D01*
X386000Y347250D01*
Y349749D01*
X384750Y350998D01*
X382251D01*
Y348499D01*
X386000Y353498D02*
X378502D01*
X386000Y358496D01*
X378502D01*
Y360995D02*
X386000D01*
Y364744D01*
X384750Y365994D01*
X379752D01*
X378502Y364744D01*
Y360995D01*
X531000Y280749D02*
X535998D01*
X533499Y283248D02*
Y278250D01*
X543496Y284498D02*
X538498D01*
Y280749D01*
X540997Y281998D01*
X542246D01*
X543496Y280749D01*
Y278250D01*
X542246Y277000D01*
X539747D01*
X538498Y278250D01*
X409000Y275749D02*
X413998D01*
X411499Y278248D02*
Y273250D01*
X421496Y279498D02*
X416498D01*
Y275749D01*
X418997Y276998D01*
X420246D01*
X421496Y275749D01*
Y273250D01*
X420246Y272000D01*
X417747D01*
X416498Y273250D01*
X330000Y282749D02*
X334998D01*
X332499Y285248D02*
Y280250D01*
X342496Y286498D02*
X337498D01*
Y282749D01*
X339997Y283998D01*
X341246D01*
X342496Y282749D01*
Y280250D01*
X341246Y279000D01*
X338747D01*
X337498Y280250D01*
X257251Y274000D02*
Y278998D01*
X254752Y276499D02*
X259750D01*
X253502Y286496D02*
Y281498D01*
X257251D01*
X256002Y283997D01*
Y285246D01*
X257251Y286496D01*
X259750D01*
X261000Y285246D01*
Y282747D01*
X259750Y281498D01*
X414752Y568998D02*
X413502Y567749D01*
Y565250D01*
X414752Y564000D01*
X419750D01*
X421000Y565250D01*
Y567749D01*
X419750Y568998D01*
X417251D01*
Y566499D01*
X421000Y571498D02*
X413502D01*
X421000Y576496D01*
X413502D01*
Y578995D02*
X421000D01*
Y582744D01*
X419750Y583994D01*
X414752D01*
X413502Y582744D01*
Y578995D01*
X391251Y572000D02*
Y576998D01*
X388752Y574499D02*
X393750D01*
X387502Y584496D02*
Y579498D01*
X391251D01*
X390002Y581997D01*
Y583246D01*
X391251Y584496D01*
X393750D01*
X395000Y583246D01*
Y580747D01*
X393750Y579498D01*
X361752Y557000D02*
X360502Y558250D01*
Y560749D01*
X361752Y561998D01*
X363002D01*
X364251Y560749D01*
Y559499D01*
Y560749D01*
X365501Y561998D01*
X366750D01*
X368000Y560749D01*
Y558250D01*
X366750Y557000D01*
X368000Y564498D02*
X366750D01*
Y565747D01*
X368000D01*
Y564498D01*
X361752Y570746D02*
X360502Y571995D01*
Y574494D01*
X361752Y575744D01*
X363002D01*
X364251Y574494D01*
Y573245D01*
Y574494D01*
X365501Y575744D01*
X366750D01*
X368000Y574494D01*
Y571995D01*
X366750Y570746D01*
X363002Y578243D02*
X368000Y580742D01*
X363002Y583242D01*
X464666Y469350D02*
X463416Y468101D01*
Y465602D01*
X464666Y464352D01*
X469664D01*
X470914Y465602D01*
Y468101D01*
X469664Y469350D01*
X470914Y475598D02*
X463416D01*
X467165Y471850D01*
Y476848D01*
X465754Y511200D02*
X464505Y512450D01*
X462006D01*
X460756Y511200D01*
Y506202D01*
X462006Y504952D01*
X464505D01*
X465754Y506202D01*
X468254Y511200D02*
X469503Y512450D01*
X472002D01*
X473252Y511200D01*
Y509950D01*
X472002Y508701D01*
X470753D01*
X472002D01*
X473252Y507451D01*
Y506202D01*
X472002Y504952D01*
X469503D01*
X468254Y506202D01*
X330118Y571652D02*
X328869Y572902D01*
X326370D01*
X325120Y571652D01*
Y566654D01*
X326370Y565404D01*
X328869D01*
X330118Y566654D01*
X337616Y565404D02*
X332618D01*
X337616Y570402D01*
Y571652D01*
X336366Y572902D01*
X333867D01*
X332618Y571652D01*
X498254Y374651D02*
Y379650D01*
X500754Y382149D01*
X503253Y379650D01*
Y374651D01*
Y378400D01*
X498254D01*
X505752Y382149D02*
Y374651D01*
X509501D01*
X510750Y375901D01*
Y380899D01*
X509501Y382149D01*
X505752D01*
X518248Y380899D02*
X516998Y382149D01*
X514499D01*
X513250Y380899D01*
Y375901D01*
X514499Y374651D01*
X516998D01*
X518248Y375901D01*
X524496Y374651D02*
Y382149D01*
X520747Y378400D01*
X525746D01*
X268504Y375651D02*
Y380650D01*
X271003Y383149D01*
X273502Y380650D01*
Y375651D01*
Y379400D01*
X268504D01*
X276002Y383149D02*
Y375651D01*
X279750D01*
X281000Y376901D01*
Y381899D01*
X279750Y383149D01*
X276002D01*
X288498Y381899D02*
X287248Y383149D01*
X284749D01*
X283499Y381899D01*
Y376901D01*
X284749Y375651D01*
X287248D01*
X288498Y376901D01*
X290997Y375651D02*
X293496D01*
X292246D01*
Y383149D01*
X290997Y381899D01*
X426588Y375651D02*
Y380650D01*
X429087Y383149D01*
X431586Y380650D01*
Y375651D01*
Y379400D01*
X426588D01*
X434085Y383149D02*
Y375651D01*
X437834D01*
X439084Y376901D01*
Y381899D01*
X437834Y383149D01*
X434085D01*
X446581Y381899D02*
X445332Y383149D01*
X442832D01*
X441583Y381899D01*
Y376901D01*
X442832Y375651D01*
X445332D01*
X446581Y376901D01*
X449081Y381899D02*
X450330Y383149D01*
X452829D01*
X454079Y381899D01*
Y380650D01*
X452829Y379400D01*
X451580D01*
X452829D01*
X454079Y378150D01*
Y376901D01*
X452829Y375651D01*
X450330D01*
X449081Y376901D01*
X346921Y375651D02*
Y380650D01*
X349420Y383149D01*
X351919Y380650D01*
Y375651D01*
Y379400D01*
X346921D01*
X354419Y383149D02*
Y375651D01*
X358167D01*
X359417Y376901D01*
Y381899D01*
X358167Y383149D01*
X354419D01*
X366915Y381899D02*
X365665Y383149D01*
X363166D01*
X361916Y381899D01*
Y376901D01*
X363166Y375651D01*
X365665D01*
X366915Y376901D01*
X374412Y375651D02*
X369414D01*
X374412Y380650D01*
Y381899D01*
X373163Y383149D01*
X370663D01*
X369414Y381899D01*
D11*
X368000Y441500D02*
X412000D01*
X368000Y538500D02*
X412000D01*
X356800Y422000D02*
X361200D01*
X356800Y408000D02*
X361200D01*
X402800Y405000D02*
X407200D01*
X402800Y391000D02*
X407200D01*
X280800Y414000D02*
X285200D01*
X280800Y428000D02*
X285200D01*
X356800Y388000D02*
X361200D01*
X356800Y402000D02*
X361200D01*
X403800Y373000D02*
X408200D01*
X403800Y387000D02*
X408200D01*
X280800Y405000D02*
X285200D01*
X280800Y391000D02*
X285200D01*
X477800Y363000D02*
X482200D01*
X477800Y377000D02*
X482200D01*
X477800Y397000D02*
X482200D01*
X477800Y383000D02*
X482200D01*
D12*
X340499Y409668D02*
X335501D01*
Y412167D01*
X336334Y413000D01*
X338000D01*
X338833Y412167D01*
Y409668D01*
Y411334D02*
X340499Y413000D01*
Y414666D02*
Y416332D01*
Y415499D01*
X335501D01*
X336334Y414666D01*
X386999Y394668D02*
X383001D01*
Y396667D01*
X383667Y397334D01*
X385000D01*
X385666Y396667D01*
Y394668D01*
Y396001D02*
X386999Y397334D01*
Y400666D02*
X383001D01*
X385000Y398666D01*
Y401332D01*
X279668Y432001D02*
Y435999D01*
X281667D01*
X282334Y435333D01*
Y434000D01*
X281667Y433334D01*
X279668D01*
X281001D02*
X282334Y432001D01*
X286332Y435999D02*
X284999Y435333D01*
X283666Y434000D01*
Y432667D01*
X284333Y432001D01*
X285666D01*
X286332Y432667D01*
Y433334D01*
X285666Y434000D01*
X283666D01*
X340999Y390668D02*
X337001D01*
Y392667D01*
X337667Y393334D01*
X339000D01*
X339666Y392667D01*
Y390668D01*
Y392001D02*
X340999Y393334D01*
Y397332D02*
Y394666D01*
X338334Y397332D01*
X337667D01*
X337001Y396666D01*
Y395333D01*
X337667Y394666D01*
X360334Y430333D02*
X359667Y430999D01*
X358334D01*
X357668Y430333D01*
Y427667D01*
X358334Y427001D01*
X359667D01*
X360334Y427667D01*
X364332Y430999D02*
X361666D01*
Y429000D01*
X362999Y429666D01*
X363666D01*
X364332Y429000D01*
Y427667D01*
X363666Y427001D01*
X362333D01*
X361666Y427667D01*
X337334Y460333D02*
X336667Y460999D01*
X335334D01*
X334668Y460333D01*
Y457667D01*
X335334Y457001D01*
X336667D01*
X337334Y457667D01*
X338666Y460999D02*
X341332D01*
Y460333D01*
X338666Y457667D01*
Y457001D01*
X400334Y421333D02*
X399667Y421999D01*
X398334D01*
X397668Y421333D01*
Y418667D01*
X398334Y418001D01*
X399667D01*
X400334Y418667D01*
X404332Y421999D02*
X402999Y421333D01*
X401666Y420000D01*
Y418667D01*
X402333Y418001D01*
X403666D01*
X404332Y418667D01*
Y419334D01*
X403666Y420000D01*
X401666D01*
X387999Y377668D02*
X384001D01*
Y379667D01*
X384667Y380334D01*
X386000D01*
X386666Y379667D01*
Y377668D01*
Y379001D02*
X387999Y380334D01*
X384667Y381666D02*
X384001Y382333D01*
Y383666D01*
X384667Y384332D01*
X385334D01*
X386000Y383666D01*
Y382999D01*
Y383666D01*
X386666Y384332D01*
X387333D01*
X387999Y383666D01*
Y382333D01*
X387333Y381666D01*
X476668Y402001D02*
Y405999D01*
X478667D01*
X479334Y405333D01*
Y404000D01*
X478667Y403334D01*
X476668D01*
X478001D02*
X479334Y402001D01*
X480667Y405333D02*
X481333Y405999D01*
X482666D01*
X483332Y405333D01*
Y404666D01*
X482666Y404000D01*
X483332Y403334D01*
Y402667D01*
X482666Y402001D01*
X481333D01*
X480667Y402667D01*
Y403334D01*
X481333Y404000D01*
X480667Y404666D01*
Y405333D01*
X481333Y404000D02*
X482666D01*
X475668Y354001D02*
Y357999D01*
X477667D01*
X478334Y357333D01*
Y356000D01*
X477667Y355334D01*
X475668D01*
X477001D02*
X478334Y354001D01*
X479666Y357999D02*
X482332D01*
Y357333D01*
X479666Y354667D01*
Y354001D01*
X447333Y439333D02*
X446667Y439999D01*
X445334D01*
X444668Y439333D01*
Y436667D01*
X445334Y436001D01*
X446667D01*
X447333Y436667D01*
X448666Y439333D02*
X449333Y439999D01*
X450666D01*
X451332Y439333D01*
Y438666D01*
X450666Y438000D01*
X451332Y437334D01*
Y436667D01*
X450666Y436001D01*
X449333D01*
X448666Y436667D01*
Y437334D01*
X449333Y438000D01*
X448666Y438666D01*
Y439333D01*
X449333Y438000D02*
X450666D01*
X330667Y484000D02*
X330001Y483334D01*
Y482001D01*
X330667Y481334D01*
X333333D01*
X333999Y482001D01*
Y483334D01*
X333333Y484000D01*
X333999Y485333D02*
Y486666D01*
Y485999D01*
X330001D01*
X330667Y485333D01*
D13*
X530066Y471161D02*
X529399Y471827D01*
X528066D01*
X527400Y471161D01*
Y468495D01*
X528066Y467829D01*
X529399D01*
X530066Y468495D01*
Y469828D01*
X528733D01*
X531399Y467829D02*
Y470494D01*
X532732Y471827D01*
X534064Y470494D01*
Y467829D01*
Y469828D01*
X531399D01*
X535397Y471827D02*
X536730D01*
X536064D01*
Y467829D01*
X535397D01*
X536730D01*
X538730D02*
Y471827D01*
X541395Y467829D01*
Y471827D01*
X545394Y467829D02*
X542728D01*
X545394Y470494D01*
Y471161D01*
X544728Y471827D01*
X543395D01*
X542728Y471161D01*
X530066Y496875D02*
X529399Y497542D01*
X528066D01*
X527400Y496875D01*
Y494209D01*
X528066Y493543D01*
X529399D01*
X530066Y494209D01*
Y495542D01*
X528733D01*
X531399Y493543D02*
Y496209D01*
X532732Y497542D01*
X534064Y496209D01*
Y493543D01*
Y495542D01*
X531399D01*
X535397Y497542D02*
X536730D01*
X536064D01*
Y493543D01*
X535397D01*
X536730D01*
X538730D02*
Y497542D01*
X541395Y493543D01*
Y497542D01*
X542728Y493543D02*
X544061D01*
X543395D01*
Y497542D01*
X542728Y496875D01*
X530066Y522589D02*
X529399Y523256D01*
X528066D01*
X527400Y522589D01*
Y521923D01*
X528066Y521256D01*
X529399D01*
X530066Y520590D01*
Y519924D01*
X529399Y519257D01*
X528066D01*
X527400Y519924D01*
X531399Y519257D02*
Y523256D01*
X533398D01*
X534064Y522589D01*
Y521256D01*
X533398Y520590D01*
X531399D01*
X538063Y523256D02*
X535397D01*
Y519257D01*
X538063D01*
X535397Y521256D02*
X536730D01*
X542062Y523256D02*
X539396D01*
Y519257D01*
X542062D01*
X539396Y521256D02*
X540729D01*
X543395Y523256D02*
Y519257D01*
X545394D01*
X546061Y519924D01*
Y522589D01*
X545394Y523256D01*
X543395D01*
X527400Y544971D02*
Y548970D01*
X529399D01*
X530066Y548304D01*
Y546971D01*
X529399Y546304D01*
X527400D01*
X531399Y548970D02*
Y544971D01*
X533398D01*
X534064Y545638D01*
Y548304D01*
X533398Y548970D01*
X531399D01*
X535397D02*
Y544971D01*
X536730Y546304D01*
X538063Y544971D01*
Y548970D01*
X539396Y544971D02*
Y548970D01*
X542062Y544971D01*
Y548970D01*
X530066Y574018D02*
X529399Y574684D01*
X528066D01*
X527400Y574018D01*
Y571352D01*
X528066Y570686D01*
X529399D01*
X530066Y571352D01*
X531399Y574684D02*
Y570686D01*
X534064D01*
X535397Y574684D02*
Y570686D01*
Y572019D01*
X538063Y574684D01*
X536064Y572685D01*
X538063Y570686D01*
X527400Y600399D02*
Y596400D01*
X529399D01*
X530066Y597066D01*
Y599732D01*
X529399Y600399D01*
X527400D01*
X533398D02*
X532065D01*
X531399Y599732D01*
Y597066D01*
X532065Y596400D01*
X533398D01*
X534064Y597066D01*
Y599732D01*
X533398Y600399D01*
X535397D02*
Y597066D01*
X536064Y596400D01*
X537397D01*
X538063Y597066D01*
Y600399D01*
X539396D02*
X542062D01*
X540729D01*
Y596400D01*
D14*
X531500Y441214D02*
Y445213D01*
X533499Y447212D01*
X535499Y445213D01*
Y441214D01*
Y444213D01*
X531500D01*
X537498Y441214D02*
X539497D01*
X538498D01*
Y447212D01*
X537498Y446213D01*
X531500Y415500D02*
Y419499D01*
X533499Y421498D01*
X535499Y419499D01*
Y415500D01*
Y418499D01*
X531500D01*
X541497Y415500D02*
X537498D01*
X541497Y419499D01*
Y420498D01*
X540497Y421498D01*
X538498D01*
X537498Y420498D01*
M02*
