G04*
G04 #@! TF.GenerationSoftware,Altium Limited,Altium Designer,21.6.1 (37)*
G04*
G04 Layer_Color=16711935*
%FSLAX44Y44*%
%MOMM*%
G71*
G04*
G04 #@! TF.SameCoordinates,0F7C46F9-05DF-46B9-B7E4-F31FC23B8959*
G04*
G04*
G04 #@! TF.FilePolarity,Positive*
G04*
G01*
G75*
%ADD10C,0.2000*%
%ADD11C,0.1270*%
D10*
X346600Y536350D02*
G03*
X346600Y536350I-1000J0D01*
G01*
D11*
X412000Y441500D02*
Y538500D01*
X368000Y441500D02*
Y538500D01*
Y441500D02*
X412000D01*
X368000Y538500D02*
X412000D01*
X348000Y408000D02*
X370000D01*
X348000Y422000D02*
X370000D01*
Y408000D02*
Y422000D01*
X348000Y408000D02*
Y422000D01*
X416000Y391000D02*
Y405000D01*
X394000Y391000D02*
Y405000D01*
Y391000D02*
X416000D01*
X394000Y405000D02*
X416000D01*
X272000Y414000D02*
Y428000D01*
X294000Y414000D02*
Y428000D01*
X272000D02*
X294000D01*
X272000Y414000D02*
X294000D01*
X348000Y388000D02*
Y402000D01*
X370000Y388000D02*
Y402000D01*
X348000D02*
X370000D01*
X348000Y388000D02*
X370000D01*
X369700Y426200D02*
X380300D01*
X369700Y431800D02*
X380300D01*
Y426200D02*
Y431800D01*
X369700Y426200D02*
Y431800D01*
X395000Y387000D02*
X417000D01*
X395000Y373000D02*
X417000D01*
X395000D02*
Y387000D01*
X417000Y373000D02*
Y387000D01*
X272000Y391000D02*
X294000D01*
X272000Y405000D02*
X294000D01*
Y391000D02*
Y405000D01*
X272000Y391000D02*
Y405000D01*
X469000Y377000D02*
X491000D01*
X469000Y363000D02*
X491000D01*
X469000D02*
Y377000D01*
X491000Y363000D02*
Y377000D01*
Y383000D02*
Y397000D01*
X469000Y383000D02*
Y397000D01*
Y383000D02*
X491000D01*
X469000Y397000D02*
X491000D01*
X340800Y440700D02*
Y451300D01*
X335200Y440700D02*
Y451300D01*
X340800D01*
X335200Y440700D02*
X340800D01*
X394700Y431800D02*
X405300D01*
X394700Y426200D02*
X405300D01*
X394700D02*
Y431800D01*
X405300Y426200D02*
Y431800D01*
X443700Y425200D02*
X454300D01*
X443700Y430800D02*
X454300D01*
Y425200D02*
Y430800D01*
X443700Y425200D02*
Y430800D01*
X453365Y466300D02*
Y476900D01*
X458965Y466300D02*
Y476900D01*
X453365Y466300D02*
X458965D01*
X453365Y476900D02*
X458965D01*
X343800Y477700D02*
Y488300D01*
X338200Y477700D02*
Y488300D01*
X343800D01*
X338200Y477700D02*
X343800D01*
X465000Y485000D02*
X483000D01*
X465000Y495000D02*
X483000D01*
Y485000D02*
Y495000D01*
X465000Y485000D02*
Y495000D01*
X336000Y534000D02*
Y552000D01*
X326000Y534000D02*
Y552000D01*
X336000D01*
X326000Y534000D02*
X336000D01*
M02*
