G04*
G04 #@! TF.GenerationSoftware,Altium Limited,Altium Designer,21.6.1 (37)*
G04*
G04 Layer_Color=8388736*
%FSLAX44Y44*%
%MOMM*%
G71*
G04*
G04 #@! TF.SameCoordinates,0F7C46F9-05DF-46B9-B7E4-F31FC23B8959*
G04*
G04*
G04 #@! TF.FilePolarity,Negative*
G04*
G01*
G75*
G04:AMPARAMS|DCode=21|XSize=1.7732mm|YSize=0.6132mm|CornerRadius=0.1529mm|HoleSize=0mm|Usage=FLASHONLY|Rotation=0.000|XOffset=0mm|YOffset=0mm|HoleType=Round|Shape=RoundedRectangle|*
%AMROUNDEDRECTD21*
21,1,1.7732,0.3075,0,0,0.0*
21,1,1.4675,0.6132,0,0,0.0*
1,1,0.3057,0.7338,-0.1538*
1,1,0.3057,-0.7338,-0.1538*
1,1,0.3057,-0.7338,0.1538*
1,1,0.3057,0.7338,0.1538*
%
%ADD21ROUNDEDRECTD21*%
%ADD22R,1.1232X1.6232*%
%ADD23R,0.7432X0.8032*%
%ADD24R,0.8032X0.7432*%
%ADD25R,1.2032X1.2232*%
%ADD26R,1.2232X1.2032*%
%ADD27R,1.7032X1.7032*%
%ADD28C,1.7032*%
%ADD29R,1.7032X1.7032*%
%ADD30C,1.4732*%
D21*
X418700Y532250D02*
D03*
Y525750D02*
D03*
Y519250D02*
D03*
Y512750D02*
D03*
Y506250D02*
D03*
Y499750D02*
D03*
Y493250D02*
D03*
Y486750D02*
D03*
Y480250D02*
D03*
Y473750D02*
D03*
Y467250D02*
D03*
Y460750D02*
D03*
Y454250D02*
D03*
Y447750D02*
D03*
X361300D02*
D03*
Y454250D02*
D03*
Y460750D02*
D03*
Y467250D02*
D03*
Y473750D02*
D03*
Y480250D02*
D03*
Y486750D02*
D03*
Y493250D02*
D03*
Y499750D02*
D03*
Y506250D02*
D03*
Y512750D02*
D03*
Y519250D02*
D03*
Y525750D02*
D03*
Y532250D02*
D03*
D22*
X349000Y415000D02*
D03*
X369000D02*
D03*
X395000Y398000D02*
D03*
X415000D02*
D03*
X293000Y421000D02*
D03*
X273000D02*
D03*
X369000Y395000D02*
D03*
X349000D02*
D03*
X416000Y380000D02*
D03*
X396000D02*
D03*
X273000Y398000D02*
D03*
X293000D02*
D03*
X490000Y370000D02*
D03*
X470000D02*
D03*
Y390000D02*
D03*
X490000D02*
D03*
D23*
X370680Y429000D02*
D03*
X379320D02*
D03*
X404320D02*
D03*
X395680D02*
D03*
X444680Y428000D02*
D03*
X453320D02*
D03*
D24*
X338000Y441680D02*
D03*
Y450320D02*
D03*
X456165Y475920D02*
D03*
Y467280D02*
D03*
X341000Y478680D02*
D03*
Y487320D02*
D03*
D25*
X466410Y490000D02*
D03*
X481590D02*
D03*
D26*
X331000Y535410D02*
D03*
Y550590D02*
D03*
D27*
X510000Y419200D02*
D03*
X513000Y280600D02*
D03*
X280000Y281600D02*
D03*
X440667D02*
D03*
X360333D02*
D03*
D28*
X510000Y444600D02*
D03*
Y470000D02*
D03*
Y495400D02*
D03*
Y520800D02*
D03*
Y546200D02*
D03*
Y571600D02*
D03*
Y597000D02*
D03*
X391000Y602000D02*
D03*
X416400D02*
D03*
X513000Y356800D02*
D03*
Y331400D02*
D03*
Y306000D02*
D03*
X280000Y357800D02*
D03*
Y332400D02*
D03*
Y307000D02*
D03*
X440667Y357800D02*
D03*
Y332400D02*
D03*
Y307000D02*
D03*
X360333Y357800D02*
D03*
Y332400D02*
D03*
Y307000D02*
D03*
D29*
X365600Y602000D02*
D03*
D30*
X382480Y501000D02*
D03*
X380000Y482000D02*
D03*
X379000Y518000D02*
D03*
X315000Y501000D02*
D03*
X329000Y511000D02*
D03*
X316000Y516000D02*
D03*
X314000Y530000D02*
D03*
Y547000D02*
D03*
X440473Y486750D02*
D03*
X481000Y472000D02*
D03*
M02*
