G04*
G04 #@! TF.GenerationSoftware,Altium Limited,Altium Designer,21.6.1 (37)*
G04*
G04 Layer_Physical_Order=1*
G04 Layer_Color=255*
%FSLAX44Y44*%
%MOMM*%
G71*
G04*
G04 #@! TF.SameCoordinates,0F7C46F9-05DF-46B9-B7E4-F31FC23B8959*
G04*
G04*
G04 #@! TF.FilePolarity,Positive*
G04*
G01*
G75*
G04:AMPARAMS|DCode=15|XSize=1.57mm|YSize=0.41mm|CornerRadius=0.0513mm|HoleSize=0mm|Usage=FLASHONLY|Rotation=0.000|XOffset=0mm|YOffset=0mm|HoleType=Round|Shape=RoundedRectangle|*
%AMROUNDEDRECTD15*
21,1,1.5700,0.3075,0,0,0.0*
21,1,1.4675,0.4100,0,0,0.0*
1,1,0.1025,0.7338,-0.1538*
1,1,0.1025,-0.7338,-0.1538*
1,1,0.1025,-0.7338,0.1538*
1,1,0.1025,0.7338,0.1538*
%
%ADD15ROUNDEDRECTD15*%
%ADD16R,0.9200X1.4200*%
%ADD17R,0.5400X0.6000*%
%ADD18R,0.6000X0.5400*%
%ADD19R,1.0000X1.0200*%
%ADD20R,1.0200X1.0000*%
%ADD31C,0.3810*%
%ADD32C,0.2540*%
%ADD33R,1.5000X1.5000*%
%ADD34C,1.5000*%
%ADD35R,1.5000X1.5000*%
%ADD36C,1.2700*%
G36*
X380000Y530255D02*
X379949Y530000D01*
X370072D01*
X369828Y530163D01*
X368638Y530400D01*
X353963D01*
X352771Y530163D01*
X352528Y530000D01*
X340000D01*
Y620000D01*
X380000D01*
Y530255D01*
D02*
G37*
G36*
X545000Y470000D02*
Y259000D01*
X500000D01*
Y310232D01*
X500982Y311038D01*
X501206Y310993D01*
X503019D01*
X503353Y310415D01*
X503603Y309723D01*
X502960Y307322D01*
Y304678D01*
X503644Y302125D01*
X504966Y299835D01*
X506835Y297966D01*
X509125Y296644D01*
X511678Y295960D01*
X514322D01*
X516875Y296644D01*
X519165Y297966D01*
X521034Y299835D01*
X522356Y302125D01*
X523040Y304678D01*
Y307322D01*
X522356Y309875D01*
X521034Y312165D01*
X519165Y314034D01*
X516875Y315356D01*
X514322Y316040D01*
X512735D01*
X512429Y316498D01*
X510227Y318700D01*
X512429Y320902D01*
X512735Y321360D01*
X514322D01*
X516875Y322044D01*
X519165Y323366D01*
X521034Y325235D01*
X522356Y327525D01*
X523040Y330078D01*
Y332722D01*
X522356Y335275D01*
X521034Y337565D01*
X519165Y339434D01*
X516875Y340756D01*
X514322Y341440D01*
X511678D01*
X509125Y340756D01*
X506835Y339434D01*
X505587Y338186D01*
X504317Y338712D01*
Y349488D01*
X505587Y350014D01*
X506835Y348766D01*
X509125Y347444D01*
X511678Y346760D01*
X514322D01*
X516875Y347444D01*
X519165Y348766D01*
X521034Y350635D01*
X522356Y352925D01*
X523040Y355478D01*
Y358122D01*
X522356Y360675D01*
X521034Y362965D01*
X519165Y364834D01*
X516875Y366156D01*
X514322Y366840D01*
X511678D01*
X509125Y366156D01*
X506835Y364834D01*
X506760Y364759D01*
X505587Y365245D01*
Y376445D01*
X505242Y378179D01*
X504260Y379650D01*
X504260Y379650D01*
X500000Y383909D01*
Y394000D01*
X497140Y397032D01*
Y399640D01*
X494679D01*
X429071Y469185D01*
X428913Y469978D01*
X428564Y470500D01*
X428913Y471021D01*
X429150Y472212D01*
Y472212D01*
Y475288D01*
X429121Y475431D01*
X428934Y476371D01*
X428913Y476479D01*
X428238Y477488D01*
X427229Y478163D01*
X426037Y478400D01*
X420378D01*
X417987Y480934D01*
X418490Y482100D01*
X426037D01*
X427229Y482337D01*
X428019Y482865D01*
X432450D01*
X433359Y481291D01*
X435014Y479636D01*
X435651Y479268D01*
D01*
X437041Y478466D01*
X439302Y477860D01*
X441643D01*
X443904Y478466D01*
X445931Y479636D01*
X447587Y481291D01*
X448757Y483319D01*
X449363Y485580D01*
Y487920D01*
X448757Y490181D01*
X447587Y492209D01*
X445931Y493864D01*
X443904Y495034D01*
X441643Y495640D01*
X439302D01*
X437041Y495034D01*
X435014Y493864D01*
X433359Y492209D01*
X432450Y490635D01*
X428019D01*
X427229Y491163D01*
X426037Y491400D01*
X411362D01*
X410171Y491163D01*
X409162Y490488D01*
X408487Y489478D01*
X408250Y488288D01*
Y485213D01*
X408487Y484021D01*
X409162Y483012D01*
X410171Y482337D01*
X411362Y482100D01*
X412125D01*
X412634Y481750D01*
Y481189D01*
X411362Y478400D01*
X410171Y478163D01*
X409298Y477579D01*
X390766D01*
X388686Y480070D01*
X388890Y480830D01*
Y483170D01*
X388284Y485431D01*
X387114Y487459D01*
X385459Y489114D01*
X385015Y489370D01*
X385439Y492589D01*
X385911Y492716D01*
X387938Y493886D01*
X389594Y495541D01*
X390764Y497569D01*
X391370Y499830D01*
Y502170D01*
X390764Y504431D01*
X389594Y506459D01*
X387938Y508114D01*
X386664Y508849D01*
X385937Y511264D01*
X385952Y512379D01*
X386114Y512541D01*
X387284Y514569D01*
X387890Y516830D01*
Y519170D01*
X387284Y521431D01*
X386114Y523459D01*
X384459Y525114D01*
X383493Y525671D01*
X383177Y526146D01*
X382393Y529009D01*
X382590Y530000D01*
Y620000D01*
X545000D01*
Y470000D01*
D02*
G37*
%LPC*%
G36*
X417722Y612040D02*
X415078D01*
X412525Y611356D01*
X410235Y610034D01*
X408366Y608165D01*
X407044Y605875D01*
X406360Y603322D01*
Y600678D01*
X407044Y598125D01*
X408366Y595835D01*
X410235Y593966D01*
X412525Y592644D01*
X415078Y591960D01*
X417722D01*
X420275Y592644D01*
X422565Y593966D01*
X424434Y595835D01*
X425756Y598125D01*
X426440Y600678D01*
Y603322D01*
X425756Y605875D01*
X424434Y608165D01*
X422565Y610034D01*
X420275Y611356D01*
X417722Y612040D01*
D02*
G37*
G36*
X511322Y607040D02*
X508678D01*
X506125Y606356D01*
X503835Y605034D01*
X501966Y603165D01*
X500650Y600885D01*
X493000D01*
X491513Y600589D01*
X490253Y599747D01*
X483221Y592715D01*
X478830D01*
X477343Y592419D01*
X476083Y591577D01*
X463703Y579197D01*
X462861Y577937D01*
X462565Y576450D01*
Y543059D01*
X455641Y536135D01*
X428019D01*
X427229Y536663D01*
X426037Y536900D01*
X411362D01*
X410171Y536663D01*
X409162Y535988D01*
X408487Y534978D01*
X408250Y533787D01*
Y530713D01*
X408487Y529521D01*
X408835Y529000D01*
X408487Y528479D01*
X408250Y527287D01*
Y524212D01*
X408487Y523022D01*
X408835Y522500D01*
X408487Y521978D01*
X408250Y520788D01*
Y517713D01*
X408487Y516521D01*
X408835Y516000D01*
X408487Y515479D01*
X408250Y514287D01*
Y511213D01*
X408487Y510022D01*
X408835Y509500D01*
X408487Y508979D01*
X408250Y507788D01*
Y504712D01*
X408487Y503521D01*
X408835Y503000D01*
X408487Y502478D01*
X408250Y501287D01*
Y498213D01*
X408487Y497021D01*
X409162Y496012D01*
X410171Y495337D01*
X411362Y495100D01*
X426037D01*
X427229Y495337D01*
X428019Y495865D01*
X428197D01*
X429684Y496161D01*
X430944Y497003D01*
X432057Y498116D01*
X472977D01*
X474050Y497640D01*
Y491560D01*
X474001Y491487D01*
X473705Y490000D01*
X474001Y488513D01*
X474050Y488440D01*
D01*
Y482360D01*
X477115D01*
Y480023D01*
X475968Y479360D01*
X475541Y479114D01*
X473886Y477459D01*
X472716Y475431D01*
X472110Y473170D01*
Y471353D01*
X471922Y471165D01*
X461705D01*
Y472520D01*
X450625D01*
Y470000D01*
Y462040D01*
X461705D01*
Y463395D01*
X473531D01*
X475017Y463691D01*
X476220Y464495D01*
X477569Y463716D01*
X479830Y463110D01*
X482170D01*
X484431Y463716D01*
X486459Y464886D01*
X488114Y466541D01*
X489284Y468569D01*
X489890Y470830D01*
Y473170D01*
X489284Y475431D01*
X488114Y477459D01*
X486459Y479114D01*
X484885Y480023D01*
Y482360D01*
X489130D01*
Y495717D01*
X490303Y496203D01*
X492035Y494471D01*
Y482080D01*
X492331Y480593D01*
X493173Y479333D01*
X500219Y472287D01*
X499960Y471322D01*
Y468678D01*
X500644Y466125D01*
X501966Y463835D01*
X503835Y461966D01*
X506125Y460644D01*
X508678Y459960D01*
X511322D01*
X513875Y460644D01*
X516165Y461966D01*
X518034Y463835D01*
X519356Y466125D01*
X520040Y468678D01*
Y470000D01*
Y471322D01*
X519356Y473875D01*
X518034Y476165D01*
X516165Y478034D01*
X513875Y479356D01*
X511322Y480040D01*
X508678D01*
X506125Y479356D01*
X504865Y478629D01*
X499805Y483689D01*
Y487211D01*
Y490439D01*
X501075Y490779D01*
X501966Y489235D01*
X502805Y488397D01*
X503835Y487366D01*
X506125Y486044D01*
X508678Y485360D01*
X511322D01*
X513875Y486044D01*
X516165Y487366D01*
X518034Y489235D01*
X519356Y491525D01*
X520040Y494078D01*
Y496722D01*
X519502Y498730D01*
D01*
X519356Y499275D01*
X518034Y501565D01*
X516165Y503434D01*
X513875Y504756D01*
X511322Y505440D01*
X508678D01*
X506649Y504896D01*
X505038Y506358D01*
X505221Y509583D01*
X507245Y511144D01*
X508678Y510760D01*
X511322D01*
X513875Y511444D01*
X516165Y512766D01*
X518034Y514635D01*
X519356Y516925D01*
X520040Y519478D01*
Y522122D01*
X519356Y524675D01*
X518034Y526965D01*
X516165Y528834D01*
X513875Y530156D01*
X511322Y530840D01*
X508678D01*
X506125Y530156D01*
X503835Y528834D01*
X501966Y526965D01*
X500644Y524675D01*
X499960Y522122D01*
Y519478D01*
X497616Y516635D01*
X489848D01*
X488700Y519406D01*
X506135Y536841D01*
X508678Y536160D01*
X511322D01*
X513875Y536844D01*
X516165Y538166D01*
X518034Y540035D01*
X519356Y542325D01*
X520040Y544878D01*
Y547522D01*
X519356Y550075D01*
X518034Y552365D01*
X516165Y554234D01*
X513875Y555556D01*
X511322Y556240D01*
X508678D01*
X506125Y555556D01*
X503835Y554234D01*
X501966Y552365D01*
X500644Y550075D01*
X499960Y547522D01*
Y544878D01*
X500641Y542335D01*
X481441Y523135D01*
X470948D01*
X469800Y525906D01*
X485197Y541303D01*
X486039Y542563D01*
X486335Y544050D01*
Y557115D01*
X499400D01*
X500887Y557411D01*
X502147Y558253D01*
X506135Y562241D01*
X508678Y561560D01*
X511322D01*
X513875Y562244D01*
X516165Y563566D01*
X518034Y565435D01*
X519356Y567725D01*
X520040Y570278D01*
Y572922D01*
X519356Y575475D01*
X518034Y577765D01*
X516165Y579634D01*
X513875Y580956D01*
X511322Y581640D01*
X508678D01*
X506125Y580956D01*
X503835Y579634D01*
X501966Y577765D01*
X500644Y575475D01*
X499960Y572922D01*
Y570278D01*
X500641Y567735D01*
X497791Y564885D01*
X482450D01*
X480963Y564589D01*
X479703Y563747D01*
X478861Y562487D01*
X478565Y561000D01*
Y545659D01*
X473154Y540248D01*
X470841Y541234D01*
X470335Y541671D01*
Y574841D01*
X480439Y584945D01*
X484830D01*
X486317Y585241D01*
X487577Y586083D01*
X494609Y593115D01*
X500650D01*
X501966Y590835D01*
X503835Y588966D01*
X506125Y587644D01*
X508678Y586960D01*
X511322D01*
X513875Y587644D01*
X516165Y588966D01*
X518034Y590835D01*
X519356Y593125D01*
X520040Y595678D01*
Y598322D01*
X519356Y600875D01*
X518034Y603165D01*
X516165Y605034D01*
X513875Y606356D01*
X511322Y607040D01*
D02*
G37*
G36*
Y454640D02*
X508678D01*
X506125Y453956D01*
X503835Y452634D01*
X501966Y450765D01*
X500644Y448475D01*
X499960Y445922D01*
Y443278D01*
X500644Y440725D01*
X501966Y438435D01*
X503835Y436566D01*
X506125Y435244D01*
X508678Y434560D01*
X511322D01*
X513875Y435244D01*
X516165Y436566D01*
X518034Y438435D01*
X519356Y440725D01*
X520040Y443278D01*
Y445922D01*
X519356Y448475D01*
X518034Y450765D01*
X516165Y452634D01*
X513875Y453956D01*
X511322Y454640D01*
D02*
G37*
G36*
X520040Y429240D02*
X499960D01*
Y409160D01*
X520040D01*
Y429240D01*
D02*
G37*
%LPD*%
D15*
X418700Y532250D02*
D03*
Y525750D02*
D03*
Y519250D02*
D03*
Y512750D02*
D03*
Y506250D02*
D03*
Y499750D02*
D03*
Y493250D02*
D03*
Y486750D02*
D03*
Y480250D02*
D03*
Y473750D02*
D03*
Y467250D02*
D03*
Y460750D02*
D03*
Y454250D02*
D03*
Y447750D02*
D03*
X361300D02*
D03*
Y454250D02*
D03*
Y460750D02*
D03*
Y467250D02*
D03*
Y473750D02*
D03*
Y480250D02*
D03*
Y486750D02*
D03*
Y493250D02*
D03*
Y499750D02*
D03*
Y506250D02*
D03*
Y512750D02*
D03*
Y519250D02*
D03*
Y525750D02*
D03*
Y532250D02*
D03*
D16*
X349000Y415000D02*
D03*
X369000D02*
D03*
X395000Y398000D02*
D03*
X415000D02*
D03*
X293000Y421000D02*
D03*
X273000D02*
D03*
X369000Y395000D02*
D03*
X349000D02*
D03*
X416000Y380000D02*
D03*
X396000D02*
D03*
X273000Y398000D02*
D03*
X293000D02*
D03*
X490000Y370000D02*
D03*
X470000D02*
D03*
Y390000D02*
D03*
X490000D02*
D03*
D17*
X370680Y429000D02*
D03*
X379320D02*
D03*
X404320D02*
D03*
X395680D02*
D03*
X444680Y428000D02*
D03*
X453320D02*
D03*
D18*
X338000Y441680D02*
D03*
Y450320D02*
D03*
X456165Y475920D02*
D03*
Y467280D02*
D03*
X341000Y478680D02*
D03*
Y487320D02*
D03*
D19*
X466410Y490000D02*
D03*
X481590D02*
D03*
D20*
X331000Y535410D02*
D03*
Y550590D02*
D03*
D31*
X395475Y398475D02*
Y428205D01*
X395000Y398000D02*
X395475Y398475D01*
X403525Y429795D02*
Y432000D01*
X403175Y432350D02*
X403525Y432000D01*
X403175Y432350D02*
Y457917D01*
X404320Y425334D02*
Y429000D01*
X406083Y460825D02*
X418625D01*
X403175Y457917D02*
X406083Y460825D01*
X418625Y467175D02*
X418700Y467250D01*
X396825Y460547D02*
X403452Y467175D01*
X396475Y429795D02*
Y431685D01*
X396825Y432035D01*
Y460547D01*
X403452Y467175D02*
X418625D01*
X395680Y429000D02*
X396475Y429795D01*
X403525D02*
X404320Y429000D01*
X418625Y460825D02*
X418700Y460750D01*
X404320Y425334D02*
X404382Y425273D01*
X352000Y413500D02*
X357405Y408095D01*
Y386601D02*
Y408095D01*
Y386601D02*
X379898Y364108D01*
X351055Y383971D02*
Y392445D01*
Y383971D02*
X373548Y361478D01*
X351000Y392500D02*
X351055Y392445D01*
X404382Y390300D02*
Y425273D01*
X401176Y387095D02*
X404382Y390300D01*
X400595Y387095D02*
X401176D01*
X396000Y382500D02*
X400595Y387095D01*
X396000Y380000D02*
Y382500D01*
X377224Y427376D02*
Y436445D01*
X382499Y441720D02*
Y461223D01*
X377224Y427376D02*
X377630Y426970D01*
X370874Y439075D02*
X376149Y444350D01*
X370874Y429194D02*
Y439075D01*
X370680Y429000D02*
X370874Y429194D01*
X369885Y428205D02*
X370680Y429000D01*
X379320Y405820D02*
Y426370D01*
X361375Y467175D02*
X376548D01*
X382499Y461223D01*
X361300Y467250D02*
X361375Y467175D01*
X371000Y397500D02*
X379320Y405820D01*
X371000Y395000D02*
Y397500D01*
X373917Y460825D02*
X376149Y458593D01*
X361375Y460825D02*
X373917D01*
X361300Y460750D02*
X361375Y460825D01*
X369885Y417885D02*
Y428205D01*
X368000Y416000D02*
X369885Y417885D01*
X376149Y444350D02*
Y458593D01*
X377224Y436445D02*
X382499Y441720D01*
X452003Y392127D02*
Y432997D01*
X418845Y454105D02*
X425751D01*
X425901Y453955D02*
X431045D01*
X425751Y454105D02*
X425901Y453955D01*
X445653Y389497D02*
Y430367D01*
X418700Y447750D02*
X418845Y447605D01*
X428415D01*
X445653Y430367D01*
X431045Y453955D02*
X452003Y432997D01*
X470000Y387500D02*
Y390000D01*
X465675Y383175D02*
X470000Y387500D01*
X452003Y392127D02*
X460955Y383175D01*
X465675D01*
X418700Y454250D02*
X418845Y454105D01*
X465675Y376825D02*
X470000Y372500D01*
Y370000D02*
Y372500D01*
X445653Y389497D02*
X458325Y376825D01*
X465675D01*
X418555Y454105D02*
X418700Y454250D01*
X414370Y447750D02*
X418700D01*
X414225Y447605D02*
X414370Y447750D01*
X316852Y440593D02*
X325434Y449175D01*
X334965D01*
X323202Y437963D02*
X328064Y442825D01*
X334965D01*
X361155Y454105D02*
X361300Y454250D01*
X349139Y454105D02*
X361155D01*
X338000Y450320D02*
X338795Y449525D01*
X337205D02*
X338000Y450320D01*
X335315Y449525D02*
X337205D01*
X344209Y449175D02*
X349139Y454105D01*
X340685Y449525D02*
X341035Y449175D01*
X344209D01*
X334965D02*
X335315Y449525D01*
X338795D02*
X340685D01*
X316852Y438102D02*
Y440593D01*
X293000Y421000D02*
X295695Y418305D01*
X316852Y417000D02*
Y438102D01*
X312527Y412675D02*
X316852Y417000D01*
X297927Y412675D02*
X312527D01*
X295695Y414907D02*
Y418305D01*
Y414907D02*
X297927Y412675D01*
X346839Y442825D02*
X351769Y447755D01*
X361295D02*
X361300Y447750D01*
X351769Y447755D02*
X361295D01*
X334965Y442825D02*
X335315Y442475D01*
X341035Y442825D02*
X346839D01*
X340685Y442475D02*
X341035Y442825D01*
X338795Y442475D02*
X340685D01*
X337205D02*
X338000Y441680D01*
X335315Y442475D02*
X337205D01*
X338000Y441680D02*
X338795Y442475D01*
X323202Y414370D02*
Y437963D01*
X323202Y414370D02*
X323202D01*
X315157Y406325D02*
X323202Y414370D01*
X295695Y404093D02*
X297927Y406325D01*
X315157D01*
X295695Y400695D02*
Y404093D01*
X293000Y398000D02*
X295695Y400695D01*
X266785Y361478D02*
X284595Y379288D01*
X276224Y325107D02*
Y325596D01*
X280000Y329372D01*
X275695Y412386D02*
X284595Y403486D01*
X280000Y329372D02*
Y332400D01*
X284595Y379288D02*
Y403486D01*
X268206Y316525D02*
X273993D01*
Y322875D02*
X276224Y325107D01*
X270836Y322875D02*
X273993D01*
X276224Y313804D02*
X280000Y310028D01*
X276224Y313804D02*
Y314293D01*
X273000Y395500D02*
Y398000D01*
X280000Y307000D02*
Y310028D01*
X276013Y392805D02*
X278245Y390573D01*
X273993Y316525D02*
X276224Y314293D01*
X266785Y326926D02*
X270836Y322875D01*
X273000Y421000D02*
X275695Y418305D01*
X260435Y324296D02*
Y364108D01*
Y324296D02*
X268206Y316525D01*
X260435Y364108D02*
X278245Y381918D01*
X266785Y326926D02*
Y361478D01*
X273000Y395500D02*
X275695Y392805D01*
Y412386D02*
Y418305D01*
Y392805D02*
X276013D01*
X278245Y381918D02*
Y390573D01*
X360333Y329372D02*
Y332400D01*
X366341Y322875D02*
X369497D01*
X373548Y326926D02*
Y361478D01*
X369497Y322875D02*
X373548Y326926D01*
X366341Y316525D02*
X372127D01*
X360333Y329372D02*
X364109Y325596D01*
X352000Y413500D02*
Y416000D01*
X360333Y307000D02*
Y310028D01*
X364109Y313804D02*
Y314293D01*
X379898Y324296D02*
Y364108D01*
X372127Y316525D02*
X379898Y324296D01*
X364109Y314293D02*
X366341Y316525D01*
X364109Y325107D02*
X366341Y322875D01*
X360333Y310028D02*
X364109Y313804D01*
Y325107D02*
Y325596D01*
X440667Y307000D02*
Y310028D01*
Y332400D02*
Y333752D01*
X415000Y395500D02*
Y398000D01*
Y395500D02*
X417695Y392805D01*
X427452Y326926D02*
X431503Y322875D01*
X427452Y326926D02*
Y361478D01*
X433627Y367653D01*
X431503Y322875D02*
X434659D01*
X440667Y329372D02*
Y332400D01*
X436891Y325596D02*
X440667Y329372D01*
X436891Y325107D02*
Y325596D01*
X421102Y324296D02*
X428872Y316525D01*
X416000Y380000D02*
Y382500D01*
X436891Y313804D02*
X440667Y310028D01*
X419927Y392175D02*
X427675D01*
X419297Y392805D02*
X419927Y392175D01*
X417695Y392805D02*
X419297D01*
X436891Y313804D02*
Y314293D01*
X418695Y385195D02*
X420297D01*
X416000Y382500D02*
X418695Y385195D01*
X421102Y324296D02*
Y364108D01*
X427277Y370283D01*
Y383593D01*
X428872Y316525D02*
X434659D01*
Y322875D02*
X436891Y325107D01*
X425045Y385825D02*
X427277Y383593D01*
X434659Y316525D02*
X436891Y314293D01*
X433627Y367653D02*
Y386223D01*
X427675Y392175D02*
X433627Y386223D01*
X420927Y385825D02*
X425045D01*
X420297Y385195D02*
X420927Y385825D01*
X511020Y306000D02*
X513000D01*
X499785Y325926D02*
X503836Y321875D01*
X506992D02*
X509224Y324107D01*
X499785Y325926D02*
Y355517D01*
X490000Y387500D02*
Y390000D01*
X509224Y324107D02*
Y324596D01*
X499785Y355517D02*
X501055Y356787D01*
X509224Y324596D02*
X513000Y328372D01*
X490000Y387500D02*
X501055Y376445D01*
X493435Y358147D02*
X494705Y359417D01*
X490000Y367500D02*
Y370000D01*
X503836Y321875D02*
X506992D01*
Y315525D02*
X509224Y313293D01*
Y312804D02*
Y313293D01*
X493435Y323296D02*
X501206Y315525D01*
X494705Y359417D02*
Y362795D01*
X501055Y356787D02*
Y376445D01*
X509224Y312804D02*
X513000Y309028D01*
X501206Y315525D02*
X506992D01*
X490000Y367500D02*
X494705Y362795D01*
X513000Y306000D02*
Y309028D01*
X493435Y323296D02*
Y358147D01*
X513000Y328372D02*
Y331400D01*
D32*
X473531Y467280D02*
X478251Y472000D01*
X456165Y467280D02*
X473531D01*
X478251Y472000D02*
X481000D01*
X359100Y474010D02*
X359360Y473750D01*
X349640Y474010D02*
X359100D01*
X344330Y479320D02*
X349640Y474010D01*
X341000Y479320D02*
X344330D01*
X372320Y503187D02*
Y510312D01*
X379000Y516992D01*
X372320Y496687D02*
Y503187D01*
X382480Y499663D02*
Y501000D01*
X369663Y494030D02*
X372320Y496687D01*
X370347Y487530D02*
X382480Y499663D01*
X362080Y487530D02*
X370347D01*
X362080Y494030D02*
X369663D01*
X379000Y516992D02*
Y518000D01*
X372320Y503187D02*
X372320Y503187D01*
X380000Y482000D02*
X388306Y473694D01*
X418644D01*
X418700Y473750D01*
X343810Y487960D02*
X350740Y481030D01*
X360520D01*
X361300Y480250D01*
Y486750D02*
X362080Y487530D01*
X361300Y493250D02*
X362080Y494030D01*
X315000Y501000D02*
X316250Y499750D01*
X361300D01*
X329000Y511000D02*
X331749D01*
X336499Y506250D02*
X361300D01*
X331749Y511000D02*
X336499Y506250D01*
X321999Y519250D02*
X361300D01*
X318749Y516000D02*
X321999Y519250D01*
X316000Y516000D02*
X318749D01*
X327590Y531680D02*
X328160Y532250D01*
X320568Y525750D02*
X358400D01*
X316318Y530000D02*
X320568Y525750D01*
X328160Y532250D02*
X359360D01*
X314000Y530000D02*
X316318D01*
X313969Y546969D02*
X314938Y546000D01*
X329000D01*
X477590Y490000D02*
X481000Y486590D01*
X455389Y496921D02*
X462410Y489900D01*
X432552Y496921D02*
X455389D01*
X418700Y486750D02*
X440473D01*
X489999Y502001D02*
X495920Y496080D01*
X430448Y502001D02*
X489999D01*
X428344Y507081D02*
X498319D01*
X510000Y495400D01*
X418700Y499750D02*
X428197D01*
X427513Y506250D02*
X428344Y507081D01*
X428197Y499750D02*
X430448Y502001D01*
X418700Y506250D02*
X427513D01*
X428882Y493250D02*
X432552Y496921D01*
X466450Y576450D02*
X478830Y588830D01*
X484830D01*
X466450Y576000D02*
Y576450D01*
X457250Y532250D02*
X466450Y541450D01*
Y576000D01*
X499400Y561000D02*
X510000Y571600D01*
X482450Y561000D02*
X499400D01*
X464150Y525750D02*
X482450Y544050D01*
Y561000D01*
X418700Y532250D02*
X457250D01*
X493000Y597000D02*
X510000D01*
X484830Y588830D02*
X493000Y597000D01*
X510000Y571600D02*
X512795D01*
X481000Y472000D02*
Y486590D01*
X495920Y482080D02*
Y496080D01*
X508000Y470000D02*
X510000D01*
X495920Y482080D02*
X508000Y470000D01*
X418700Y480250D02*
X428903D01*
X420640Y493250D02*
X428882D01*
X418700Y512750D02*
X501950D01*
X510000Y520800D01*
X483050Y519250D02*
X510000Y546200D01*
X418700Y519250D02*
X483050D01*
X418700Y525750D02*
X464150D01*
D33*
X510000Y419200D02*
D03*
X513000Y280600D02*
D03*
X280000Y281600D02*
D03*
X440667D02*
D03*
X360333D02*
D03*
D34*
X510000Y444600D02*
D03*
Y470000D02*
D03*
Y495400D02*
D03*
Y520800D02*
D03*
Y546200D02*
D03*
Y571600D02*
D03*
Y597000D02*
D03*
X391000Y602000D02*
D03*
X416400D02*
D03*
X513000Y356800D02*
D03*
Y331400D02*
D03*
Y306000D02*
D03*
X280000Y357800D02*
D03*
Y332400D02*
D03*
Y307000D02*
D03*
X440667Y357800D02*
D03*
Y332400D02*
D03*
Y307000D02*
D03*
X360333Y357800D02*
D03*
Y332400D02*
D03*
Y307000D02*
D03*
D35*
X365600Y602000D02*
D03*
D36*
X382480Y501000D02*
D03*
X380000Y482000D02*
D03*
X379000Y518000D02*
D03*
X315000Y501000D02*
D03*
X329000Y511000D02*
D03*
X316000Y516000D02*
D03*
X314000Y530000D02*
D03*
Y547000D02*
D03*
X440473Y486750D02*
D03*
X481000Y472000D02*
D03*
M02*
