G04*
G04 #@! TF.GenerationSoftware,Altium Limited,Altium Designer,21.6.1 (37)*
G04*
G04 Layer_Physical_Order=1*
G04 Layer_Color=255*
%FSLAX44Y44*%
%MOMM*%
G71*
G04*
G04 #@! TF.SameCoordinates,C135475F-75A8-4638-86A0-0441CF34CE4C*
G04*
G04*
G04 #@! TF.FilePolarity,Positive*
G04*
G01*
G75*
%ADD14R,0.9000X0.6500*%
%ADD15R,0.6000X0.5400*%
%ADD16R,0.5400X0.6000*%
G04:AMPARAMS|DCode=17|XSize=1.9mm|YSize=0.48mm|CornerRadius=0.12mm|HoleSize=0mm|Usage=FLASHONLY|Rotation=90.000|XOffset=0mm|YOffset=0mm|HoleType=Round|Shape=RoundedRectangle|*
%AMROUNDEDRECTD17*
21,1,1.9000,0.2400,0,0,90.0*
21,1,1.6600,0.4800,0,0,90.0*
1,1,0.2400,0.1200,0.8300*
1,1,0.2400,0.1200,-0.8300*
1,1,0.2400,-0.1200,-0.8300*
1,1,0.2400,-0.1200,0.8300*
%
%ADD17ROUNDEDRECTD17*%
%ADD18R,2.0000X1.2000*%
%ADD19R,1.9000X0.4000*%
%ADD31C,0.2787*%
%ADD32C,0.2540*%
%ADD33C,1.1000*%
%ADD34O,3.2000X1.6000*%
%ADD35R,1.5000X1.5000*%
%ADD36C,1.5000*%
%ADD37C,1.2700*%
D14*
X524000Y327250D02*
D03*
Y312750D02*
D03*
D15*
X516000Y389320D02*
D03*
Y380680D02*
D03*
D16*
X416320Y304000D02*
D03*
X407680D02*
D03*
D17*
X440750Y314950D02*
D03*
X447250D02*
D03*
X453750D02*
D03*
X460250D02*
D03*
X466750D02*
D03*
X473250D02*
D03*
X479750D02*
D03*
X486250D02*
D03*
X492750D02*
D03*
X499250D02*
D03*
Y385050D02*
D03*
X492750D02*
D03*
X486250D02*
D03*
X479750D02*
D03*
X473250D02*
D03*
X466750D02*
D03*
X460250D02*
D03*
X453750D02*
D03*
X447250D02*
D03*
X440750D02*
D03*
D18*
X296000Y377500D02*
D03*
Y307500D02*
D03*
Y352500D02*
D03*
Y332500D02*
D03*
D19*
X407000Y324000D02*
D03*
Y336000D02*
D03*
Y348000D02*
D03*
D31*
X370188Y368188D02*
X446839D01*
X448472Y369821D02*
Y374771D01*
X452528Y368140D02*
Y374771D01*
X346528Y344528D02*
X370188Y368188D01*
X348209Y340472D02*
X371869Y364132D01*
X448519D02*
X452528Y368140D01*
X446839Y368188D02*
X448472Y369821D01*
X371869Y364132D02*
X448519D01*
X308548Y340472D02*
X348209D01*
X310228Y344528D02*
X346528D01*
X448257Y374986D02*
Y385724D01*
X308548Y340472D02*
X308548Y340472D01*
X304607Y338839D02*
X306239Y340472D01*
X308548D01*
X300000Y332500D02*
X304607Y337107D01*
Y338839D01*
X296000Y332500D02*
X300000D01*
X304607Y346161D02*
Y347893D01*
Y346161D02*
X306239Y344528D01*
X296000Y352500D02*
X300000D01*
X304607Y347893D01*
X306239Y344528D02*
X310228D01*
X310228Y344528D01*
X452743Y374986D02*
Y384044D01*
X452528Y374771D02*
X452743Y374986D01*
X448257D02*
X448472Y374771D01*
D32*
X419214Y352714D02*
X445762D01*
X407000Y348000D02*
X414500D01*
X445762Y352714D02*
X447250Y351226D01*
Y314950D02*
Y351226D01*
X414500Y348000D02*
X419214Y352714D01*
X385476Y332476D02*
X389000Y336000D01*
X529726Y321040D02*
X539000Y330314D01*
Y333000D01*
X522926Y326176D02*
X524000Y327250D01*
X509502Y325103D02*
X510576Y326176D01*
X522926D01*
X524000Y312750D02*
Y319552D01*
X525488Y321040D02*
X529726D01*
X524000Y319552D02*
X525488Y321040D01*
X492750Y314950D02*
Y334237D01*
X511823Y353310D02*
X541610D01*
X492750Y334237D02*
X511823Y353310D01*
X480040Y373306D02*
X491576Y361770D01*
X589840Y347154D02*
Y380960D01*
X491576Y361770D02*
X564049D01*
X482460Y357540D02*
X572300D01*
X541610Y353310D02*
X554070Y340850D01*
X570188Y367909D02*
X572278D01*
X554070Y340850D02*
X583536D01*
X564049Y361770D02*
X570188Y367909D01*
X473250Y366750D02*
X482460Y357540D01*
X583536Y340850D02*
X589840Y347154D01*
X572300Y357540D02*
X579680Y350160D01*
X361500Y307500D02*
X369000Y315000D01*
X403511Y385050D02*
X440750D01*
X401756Y386805D02*
X403511Y385050D01*
X493880Y375037D02*
Y383920D01*
X547322Y371690D02*
X555472Y379840D01*
X497227Y371690D02*
X547322D01*
X493880Y375037D02*
X497227Y371690D01*
X535680Y380680D02*
X536000Y381000D01*
X492750Y385050D02*
X493880Y383920D01*
X516000Y380680D02*
X535680D01*
X514500Y390750D02*
Y400500D01*
Y390750D02*
X515930Y389320D01*
X513000Y402000D02*
X514500Y400500D01*
X515930Y389320D02*
X516000D01*
X389000Y301000D02*
X392000Y304000D01*
X407680D01*
X389000Y336000D02*
X407000D01*
X296000Y377000D02*
X315000D01*
X322000Y384000D01*
X296000Y377000D02*
Y377500D01*
Y307500D02*
X361500D01*
X413650Y306970D02*
X416320Y304300D01*
X413650Y306970D02*
Y308354D01*
X407004Y315000D02*
X413650Y308354D01*
X416320Y304000D02*
Y304300D01*
X369000Y315000D02*
X407004D01*
X431000Y331800D02*
Y334095D01*
Y331800D02*
X440750Y322050D01*
Y314950D02*
Y322050D01*
X452920Y315436D02*
X453092Y315608D01*
X452920Y304799D02*
Y315436D01*
X407000Y324000D02*
X414500D01*
X439500Y299000D01*
X447122D01*
X452920Y304799D01*
X453092Y315608D02*
X453750Y314950D01*
X460250Y342250D02*
X461777Y343777D01*
X460250Y314950D02*
Y342250D01*
X466530Y315170D02*
X466750Y314950D01*
X465920Y314120D02*
X466750Y314950D01*
X373000Y270000D02*
X396000Y293000D01*
X454122D01*
X456082Y288460D02*
X472420Y304799D01*
X454122Y293000D02*
X465920Y304799D01*
Y314120D01*
X398400Y270000D02*
X416860Y288460D01*
X456082D01*
X472420Y304799D02*
Y314120D01*
X473250Y314950D01*
X437890Y269378D02*
Y272031D01*
X444739Y280770D02*
X455655D01*
X438430Y272571D02*
Y274461D01*
X425910Y267890D02*
X436402D01*
X437890Y269378D01*
X423800Y270000D02*
X425910Y267890D01*
X437890Y272031D02*
X438430Y272571D01*
Y274461D02*
X444739Y280770D01*
X449200Y270000D02*
X452069D01*
X485960Y303891D01*
Y314660D02*
X486250Y314950D01*
X485960Y303891D02*
Y314660D01*
X455655Y280770D02*
X479460Y304575D01*
Y314660D01*
X479750Y314950D01*
X499250Y294650D02*
Y314950D01*
X474600Y270000D02*
X499250Y294650D01*
X550800Y420000D02*
X589840Y380960D01*
X594920Y288720D02*
Y432264D01*
X570000Y380000D02*
Y388512D01*
X556660Y366660D02*
X570000Y380000D01*
X493871Y366660D02*
X556660D01*
X541592Y403808D02*
X554704D01*
X525400Y420000D02*
X541592Y403808D01*
X554704D02*
X570000Y388512D01*
X587736Y434920D02*
X592264D01*
X470000D02*
X587736D01*
X576200Y270000D02*
X594920Y288720D01*
X592264Y434920D02*
X594920Y432264D01*
X463290Y428210D02*
X470000Y434920D01*
X486540Y373991D02*
Y384760D01*
Y373991D02*
X493871Y366660D01*
X486250Y385050D02*
X486540Y384760D01*
X480040Y373306D02*
Y384760D01*
X466750Y385050D02*
Y409634D01*
X463290Y413094D02*
X466750Y409634D01*
X463290Y413094D02*
Y428210D01*
X473250Y366750D02*
Y385050D01*
X499250D02*
X499625Y385425D01*
Y419625D01*
X500000Y420000D01*
X479750Y385050D02*
X480040Y384760D01*
X460250Y385050D02*
Y408950D01*
X449200Y420000D02*
X460250Y408950D01*
D33*
X270000Y365000D02*
D03*
Y320000D02*
D03*
D34*
Y399500D02*
D03*
Y285500D02*
D03*
D35*
X373000Y270000D02*
D03*
X423800Y420000D02*
D03*
D36*
Y270000D02*
D03*
X449200D02*
D03*
X474600D02*
D03*
X500000D02*
D03*
X525400D02*
D03*
X550800D02*
D03*
X576200D02*
D03*
X398400D02*
D03*
X576200Y420000D02*
D03*
X550800D02*
D03*
X525400D02*
D03*
X500000D02*
D03*
X449200D02*
D03*
X474600D02*
D03*
D37*
X385476Y332476D02*
D03*
X539000Y333000D02*
D03*
X509502Y325103D02*
D03*
X369000Y315000D02*
D03*
X401756Y386805D02*
D03*
X536000Y381000D02*
D03*
X389000Y301000D02*
D03*
X513000Y402000D02*
D03*
X322000Y384000D02*
D03*
X431000Y334095D02*
D03*
X461777Y343777D02*
D03*
X579680Y350160D02*
D03*
X555472Y379840D02*
D03*
X572278Y367909D02*
D03*
M02*
