G04*
G04 #@! TF.GenerationSoftware,Altium Limited,Altium Designer,21.6.1 (37)*
G04*
G04 Layer_Color=16711935*
%FSLAX44Y44*%
%MOMM*%
G71*
G04*
G04 #@! TF.SameCoordinates,C135475F-75A8-4638-86A0-0441CF34CE4C*
G04*
G04*
G04 #@! TF.FilePolarity,Negative*
G04*
G01*
G75*
%ADD26C,1.3032*%
%ADD27O,3.4032X1.8032*%
%ADD28R,1.7032X1.7032*%
%ADD29C,1.7032*%
%ADD30C,1.4732*%
D26*
X270000Y365000D02*
D03*
Y320000D02*
D03*
D27*
Y399500D02*
D03*
Y285500D02*
D03*
D28*
X373000Y270000D02*
D03*
X423800Y420000D02*
D03*
D29*
Y270000D02*
D03*
X449200D02*
D03*
X474600D02*
D03*
X500000D02*
D03*
X525400D02*
D03*
X550800D02*
D03*
X576200D02*
D03*
X398400D02*
D03*
X576200Y420000D02*
D03*
X550800D02*
D03*
X525400D02*
D03*
X500000D02*
D03*
X449200D02*
D03*
X474600D02*
D03*
D30*
X385476Y332476D02*
D03*
X539000Y333000D02*
D03*
X509502Y325103D02*
D03*
X369000Y315000D02*
D03*
X401756Y386805D02*
D03*
X536000Y381000D02*
D03*
X389000Y301000D02*
D03*
X513000Y402000D02*
D03*
X322000Y384000D02*
D03*
X431000Y334095D02*
D03*
X461777Y343777D02*
D03*
X579680Y350160D02*
D03*
X555472Y379840D02*
D03*
X572278Y367909D02*
D03*
M02*
