G04*
G04 #@! TF.GenerationSoftware,Altium Limited,Altium Designer,21.6.1 (37)*
G04*
G04 Layer_Color=16711935*
%FSLAX44Y44*%
%MOMM*%
G71*
G04*
G04 #@! TF.SameCoordinates,C135475F-75A8-4638-86A0-0441CF34CE4C*
G04*
G04*
G04 #@! TF.FilePolarity,Positive*
G04*
G01*
G75*
%ADD10C,0.2000*%
%ADD11C,0.1270*%
%ADD13C,0.1500*%
D10*
X441000Y295000D02*
G03*
X441000Y295000I-1000J0D01*
G01*
X313940Y307510D02*
G03*
X313940Y307510I-1000J0D01*
G01*
X408000Y313800D02*
G03*
X408000Y313800I-1000J0D01*
G01*
D11*
X528000Y312000D02*
Y328000D01*
X520000Y312000D02*
Y328000D01*
X528000D01*
X520000Y312000D02*
X528000D01*
X513200Y379700D02*
Y390300D01*
X518800Y379700D02*
Y390300D01*
X513200Y379700D02*
X518800D01*
X513200Y390300D02*
X518800D01*
X406700Y306800D02*
X417300D01*
X406700Y301200D02*
X417300D01*
X406700D02*
Y306800D01*
X417300Y301200D02*
Y306800D01*
X432500Y322000D02*
X507500D01*
Y378000D01*
X432500D02*
X507500D01*
X432500Y322000D02*
Y378000D01*
X243000Y282500D02*
Y402500D01*
X93500Y282500D02*
X243000D01*
X93500D02*
Y402500D01*
X243000D01*
Y444500D01*
Y282500D02*
Y402500D01*
Y240500D02*
Y282500D01*
Y402500D02*
X280000D01*
Y282500D02*
Y402500D01*
X243000Y282500D02*
X280000D01*
X400500Y320000D02*
Y352000D01*
X413500Y320000D02*
Y352000D01*
X400500Y320000D02*
X413500D01*
X400500Y352000D02*
X413500D01*
D13*
X244000Y270500D02*
X251537D01*
Y266731D01*
X250281Y265475D01*
X247769D01*
X246513Y266731D01*
Y270500D01*
X250281Y257937D02*
X251537Y259194D01*
Y261706D01*
X250281Y262962D01*
X245256D01*
X244000Y261706D01*
Y259194D01*
X245256Y257937D01*
X251537Y255425D02*
X244000D01*
Y251656D01*
X245256Y250400D01*
X246513D01*
X247769Y251656D01*
Y255425D01*
Y251656D01*
X249025Y250400D01*
X250281D01*
X251537Y251656D01*
Y255425D01*
Y235325D02*
Y240350D01*
X244000D01*
Y235325D01*
X247769Y240350D02*
Y237837D01*
X251537Y232812D02*
X244000D01*
Y229044D01*
X245256Y227787D01*
X250281D01*
X251537Y229044D01*
Y232812D01*
X250281Y220250D02*
X251537Y221506D01*
Y224018D01*
X250281Y225275D01*
X245256D01*
X244000Y224018D01*
Y221506D01*
X245256Y220250D01*
X247769D01*
Y222762D01*
X251537Y212712D02*
Y217737D01*
X244000D01*
Y212712D01*
X247769Y217737D02*
Y215225D01*
M02*
