M48
;Layer_Color=9474304
;FILE_FORMAT=4:4
METRIC,LZ
;TYPE=PLATED
T1F00S00C0.7112
T2F00S00C0.9000
;TYPE=NON_PLATED
T4F00S00C1.1000
%
T01
X00369Y00315
X00385476Y00332476
X00389Y00301
X00322Y00384
X00401756Y00386805
X00431Y00334095
X00461777Y00343777
X00509502Y00325103
X00539Y00333
X00536Y00381
X00555472Y0037984
X00572278Y00367909
X0057968Y0035016
X00513Y00402
T02
X00373Y0027
X003984
X004238
X004492
X004746
X005
X005254
X005508
X005762
Y0042
X005508
X005254
X005
X004746
X004492
X004238
T04
X0027Y0032
Y00365
M30
