G04*
G04 #@! TF.GenerationSoftware,Altium Limited,Altium Designer,21.6.1 (37)*
G04*
G04 Layer_Color=32896*
%FSLAX44Y44*%
%MOMM*%
G71*
G04*
G04 #@! TF.SameCoordinates,C135475F-75A8-4638-86A0-0441CF34CE4C*
G04*
G04*
G04 #@! TF.FilePolarity,Positive*
G04*
G01*
G75*
%ADD12C,0.1000*%
D12*
X451165Y386000D02*
X451998Y386833D01*
Y388499D01*
X451165Y389332D01*
X450332D01*
X449499Y388499D01*
Y387666D01*
Y388499D01*
X448666Y389332D01*
X447833D01*
X447000Y388499D01*
Y386833D01*
X447833Y386000D01*
X447000Y390998D02*
X447833D01*
Y391831D01*
X447000D01*
Y390998D01*
X451165Y395164D02*
X451998Y395997D01*
Y397663D01*
X451165Y398496D01*
X450332D01*
X449499Y397663D01*
Y396830D01*
Y397663D01*
X448666Y398496D01*
X447833D01*
X447000Y397663D01*
Y395997D01*
X447833Y395164D01*
X451998Y400162D02*
X448666D01*
X447000Y401828D01*
X448666Y403494D01*
X451998D01*
X472000Y391000D02*
X476998D01*
Y393499D01*
X476165Y394332D01*
X474499D01*
X473666Y393499D01*
Y391000D01*
Y392666D02*
X472000Y394332D01*
X476165Y399331D02*
X476998Y398498D01*
Y396831D01*
X476165Y395998D01*
X475332D01*
X474499Y396831D01*
Y398498D01*
X473666Y399331D01*
X472833D01*
X472000Y398498D01*
Y396831D01*
X472833Y395998D01*
X476998Y400997D02*
Y404329D01*
Y402663D01*
X472000D01*
X502165Y393332D02*
X502998Y392499D01*
Y390833D01*
X502165Y390000D01*
X501332D01*
X500499Y390833D01*
Y392499D01*
X499666Y393332D01*
X498833D01*
X498000Y392499D01*
Y390833D01*
X498833Y390000D01*
X502165Y398331D02*
X502998Y397498D01*
Y395831D01*
X502165Y394998D01*
X498833D01*
X498000Y395831D01*
Y397498D01*
X498833Y398331D01*
X502998Y399997D02*
X498000D01*
X499666D01*
X502998Y403329D01*
X500499Y400830D01*
X498000Y403329D01*
M02*
